<?xml version="1.0" encoding="UTF-8"?>
<svg width="12px" height="12px" viewBox="0 0 12 12" version="1.1" xmlns="http://www.w3.org/2000/svg"
    xmlns:xlink="http://www.w3.org/1999/xlink">
    <!-- Generator: Sketch 62 (91390) - https://sketch.com -->
    <title>close-icon</title>
    <desc>Created with Sketch.</desc>
    <g id="In-Progress" stroke="none" strokeWidth="1" fill="none" fillRule="evenodd">
        <g id="cross" transform="translate(-1063.000000, -90.000000)" fill="#ff486e" fillRule="nonzero">
            <g id="Group-19" transform="translate(335.000000, 60.000000)">
                <g id="close" transform="translate(722.000000, 24.000000)">
                    <path
                        d="M6.29289322,6.29289322 C6.68341751,5.90236893 7.31658249,5.90236893 7.70710678,6.29289322 L7.70710678,6.29289322 L12,10.585 L16.2928932,6.29289322 C16.6834175,5.90236893 17.3165825,5.90236893 17.7071068,6.29289322 C18.0976311,6.68341751 18.0976311,7.31658249 17.7071068,7.70710678 L13.415,12 L17.7071068,16.2928932 C18.0675907,16.6533772 18.0953203,17.2206082 17.7902954,17.6128994 L17.7071068,17.7071068 C17.3165825,18.0976311 16.6834175,18.0976311 16.2928932,17.7071068 L16.2928932,17.7071068 L12,13.415 L7.70710678,17.7071068 C7.31658249,18.0976311 6.68341751,18.0976311 6.29289322,17.7071068 C5.90236893,17.3165825 5.90236893,16.6834175 6.29289322,16.2928932 L10.585,12 L6.29289322,7.70710678 C5.93240926,7.34662282 5.90467972,6.77939176 6.20970461,6.38710056 Z"
                        id="Combined-Shape"></path>
                </g>
            </g>
        </g>
    </g>
</svg>
